<svg width="43" height="40" viewBox="0 0 43 40" fill="none" xmlns="http://www.w3.org/2000/svg">
<g filter="url(#filter0_d_6_33)">
<path fill-rule="evenodd" clip-rule="evenodd" d="M29.249 23.6941L38.8881 33.3332C39.2269 33.6723 39.4172 34.132 39.417 34.6113C39.4169 35.0906 39.2263 35.5502 38.8872 35.889C38.5482 36.2278 38.0885 36.4181 37.6092 36.4179C37.1298 36.4177 36.6702 36.2272 36.3314 35.8881L26.6923 26.249C23.8107 28.4808 20.1872 29.5311 16.5588 29.1861C12.9304 28.8412 9.56972 27.1269 7.16038 24.3921C4.75104 21.6573 3.47404 18.1073 3.58918 14.4644C3.70431 10.8214 5.20293 7.35918 7.78016 4.78194C10.3574 2.20471 13.8196 0.706096 17.4626 0.590961C21.1055 0.475826 24.6555 1.75282 27.3903 4.16217C30.1252 6.57151 31.8394 9.93222 32.1844 13.5606C32.5293 17.189 31.479 20.8125 29.2472 23.6941H29.249ZM17.9167 25.6667C20.7678 25.6667 23.5021 24.5341 25.5181 22.5181C27.5341 20.5021 28.6667 17.7678 28.6667 14.9167C28.6667 12.0656 27.5341 9.3313 25.5181 7.31528C23.5021 5.29926 20.7678 4.16668 17.9167 4.16668C15.0656 4.16668 12.3313 5.29926 10.3153 7.31528C8.29927 9.3313 7.16668 12.0656 7.16668 14.9167C7.16668 17.7678 8.29927 20.5021 10.3153 22.5181C12.3313 24.5341 15.0656 25.6667 17.9167 25.6667Z" fill="white"/>
<path d="M28.2275 24.1941H29.0419L38.5345 33.6866C38.5345 33.6867 38.5345 33.6867 38.5346 33.6868C38.7796 33.932 38.9171 34.2645 38.917 34.6111C38.9169 34.9578 38.7791 35.2903 38.5338 35.5354C38.2886 35.7804 37.956 35.918 37.6093 35.9179C37.2626 35.9178 36.9302 35.7799 36.6851 35.5347L36.685 35.5346L27.0458 25.8954L26.7343 25.5839L26.3861 25.8537C23.6051 28.0077 20.108 29.0213 16.6061 28.6884C13.1043 28.3555 9.86085 26.701 7.53555 24.0616C5.21026 21.4222 3.97781 17.996 4.08893 14.4802C4.20005 10.9643 5.64638 7.62283 8.13371 5.1355C10.621 2.64817 13.9625 1.20183 17.4784 1.09071C20.9942 0.979593 24.4204 2.21204 27.0598 4.53734C29.6992 6.86264 31.3537 10.1061 31.6866 13.6079C32.0195 17.1098 31.0059 20.6069 28.8519 23.3879L28.2275 24.1941ZM17.9167 26.1667C20.9004 26.1667 23.7618 24.9814 25.8716 22.8716C27.9814 20.7618 29.1667 17.9004 29.1667 14.9167C29.1667 11.933 27.9814 9.07151 25.8716 6.96173C23.7618 4.85194 20.9004 3.66668 17.9167 3.66668C14.933 3.66668 12.0715 4.85194 9.96173 6.96173C7.85195 9.07151 6.66668 11.933 6.66668 14.9167C6.66668 17.9004 7.85195 20.7618 9.96173 22.8716C12.0715 24.9814 14.933 26.1667 17.9167 26.1667Z" stroke="black"/>
</g>
<defs>
<filter id="filter0_d_6_33" x="-0.417984" y="0.583801" width="43.835" height="43.8341" filterUnits="userSpaceOnUse" color-interpolation-filters="sRGB">
<feFlood flood-opacity="0" result="BackgroundImageFix"/>
<feColorMatrix in="SourceAlpha" type="matrix" values="0 0 0 0 0 0 0 0 0 0 0 0 0 0 0 0 0 0 127 0" result="hardAlpha"/>
<feOffset dy="4"/>
<feGaussianBlur stdDeviation="2"/>
<feComposite in2="hardAlpha" operator="out"/>
<feColorMatrix type="matrix" values="0 0 0 0 0 0 0 0 0 0 0 0 0 0 0 0 0 0 0.25 0"/>
<feBlend mode="normal" in2="BackgroundImageFix" result="effect1_dropShadow_6_33"/>
<feBlend mode="normal" in="SourceGraphic" in2="effect1_dropShadow_6_33" result="shape"/>
</filter>
</defs>
</svg>
